<?xml version="1.0" encoding="utf-8"?>
<!-- Generator: Adobe Illustrator 28.3.0, SVG Export Plug-In . SVG Version: 6.00 Build 0)  -->
<svg version="1.1" xmlns="http://www.w3.org/2000/svg" xmlns:xlink="http://www.w3.org/1999/xlink" x="0px" y="0px"
	 class="icon" viewBox="0 0 200 200" style="enable-background:new 0 0 200 200;" xml:space="preserve">
<style type="text/css">
	.st0{fill-rule:evenodd;clip-rule:evenodd;fill:#1BD96A;}
	.st1{fill:#1BD96A;}
</style>
<path class="st0" d="M196.5,126c4.4-16.4,4.8-34.2,0-51.9C182.3,20.8,127.4-10.9,74,3.4C32.7,14.5,4.4,49.6,0.3,89.6h16.9
	c4-32.5,27.2-60.8,60.8-69.8c41.5-11.1,84.1,11.3,99,50.7l-16.5,4.4c-7.6-18.3-22.8-31.7-40.9-37.4l-3,17.1
	c14.3,5.3,25.8,17.1,30.1,32.9c6.2,23-5.3,46.6-26.2,56.4l4.5,16.8c27.4-11.3,43.9-39.8,40-69.1l16.4-4.4
	c1.7,10.9,1.2,22.1-1.5,32.9L196.5,126L196.5,126L196.5,126z"/>
<path class="st1" d="M125.8,196.6C72.4,210.9,17.5,179.2,3.2,125.9c-1.6-6.1-2.7-12.4-3.2-18.7h16.9c0.4,4.7,1.3,9.3,2.5,14
	c1.3,4.9,3,9.6,5.1,14l15.1-9c-1.3-3-2.4-6-3.2-9.2C27,82,47.8,46,82.9,36.6c6.6-1.8,13.3-2.5,19.8-2.2l-3,17.1
	c-4.1,0-8.2,0.6-12.4,1.7C61.4,60.1,46.1,86.7,53,112.5c0.4,1.6,0.9,3.1,1.5,4.6l19.3-11.6L68,90.2l18.2-18.7l23-5l6.7,8.2
	l-10.6,10.7L96,88.4l-6.6,6.8l3.2,9c0,0,6.6,7,6.6,7l9.3-2.5l6.6-7.2l14.4-4.6l4.3,9.6l-14.9,18.2L94,132.7l-11.2-12.4l-19.5,11.7
	c10,11.4,25,17.7,40.5,16.4l4.5,16.8c-23.2,3.1-45.9-6.5-60-24.2l-15,9c19.8,26,54,38.8,87.5,29.9c24.1-6.5,42.9-22.9,53.1-43.7
	l16.7,6.1C178.6,168,155.6,188.6,125.8,196.6L125.8,196.6z"/>
</svg>
